<svg xmlns="http://www.w3.org/2000/svg" viewBox="0 0 131.16 99.61"><defs><style>.cls-1{fill:#10cfc9;}.cls-2{fill:#fff;}.cls-3{fill:#a2a9ad;}</style></defs><g id="Layer_2" data-name="Layer 2"><g id="Layer_1-2" data-name="Layer 1"><g id="Layer_2-2" data-name="Layer 2"><g id="Layer_1-2-2" data-name="Layer 1-2"><circle class="cls-1" cx="65.58" cy="27.27" r="27.27"/><path class="cls-2" d="M54.62,39.31H51.23V14.43h3.39s.39,5.21,8,11.72C64.79,28,67,29.79,69.1,31.76a17.11,17.11,0,0,1,4,5.17c2.05,4.49,1.23,10.56-3.71,12.68a9.52,9.52,0,0,1-4.28.76,8.3,8.3,0,0,1-6.36-3.5c-1.7-2.4-1.61-5.33-1.15-8.15s3.54-7.73,3.76-7.55l2.5,2-1.65,2.46C60,39.32,59,45.83,64.51,47c3.24.69,5.67-1.28,6.36-4.39.78-3.52-2.61-7.36-5.21-9.7-2.12-1.92-8.4-6.65-10.23-9.25-1-1.42-.91-1.3-.91.45S54.62,39.31,54.62,39.31Z"/><path class="cls-2" d="M76.65,15.24H80V40.11H76.65s-.39-5.21-8-11.72c-2.17-1.85-4.41-3.63-6.48-5.6a17.23,17.23,0,0,1-4-5.17c-2.05-4.49-1.23-10.57,3.71-12.69a9.8,9.8,0,0,1,4.28-.76,8.33,8.33,0,0,1,6.33,3.5c1.7,2.4,1.61,5.33,1.15,8.16s-3.54,7.73-3.76,7.55l-2.5-2s1.55-2.31,1.65-2.47c2.23-3.69,3.17-10.2-2.3-11.36-3.24-.68-5.67,1.28-6.36,4.39-.78,3.52,2.61,7.36,5.21,9.71,2.13,1.91,8.4,6.64,10.23,9.25,1,1.42.91,1.3.91-.46S76.65,15.24,76.65,15.24Z"/><path class="cls-2" d="M57.91,49.79a9.25,9.25,0,0,1-1.16-.38A23.19,23.19,0,0,1,42.27,27.69c0-9.11,5.66-17.92,13.76-21.42l1-.42h0a5.3,5.3,0,0,0-.78,1.26,22.7,22.7,0,0,0-13,20.58A22.42,22.42,0,0,0,57,48.52a8.93,8.93,0,0,0,1,1.21S58,49.81,57.91,49.79Z"/><path class="cls-2" d="M73.21,49.79a8.49,8.49,0,0,0,1.21-.38A23.19,23.19,0,0,0,88.85,27.69c0-9.11-5.66-17.92-13.76-21.42l-1-.42h0a6.36,6.36,0,0,1,.66,1.3A22.71,22.71,0,0,1,87.92,27.69,22.42,22.42,0,0,1,74.14,48.52a8.93,8.93,0,0,1-1,1.21S73.16,49.81,73.21,49.79Z"/></g></g><path class="cls-1" d="M19,88.27V92H8.22a14.3,14.3,0,0,1-4.79-.64A4.63,4.63,0,0,1,.84,89a11.49,11.49,0,0,1-.84-5,11.19,11.19,0,0,1,.8-4.74A4.49,4.49,0,0,1,3.37,77a14.93,14.93,0,0,1,5-.66c1.14,0,2.51,0,4.11.13s2.72.17,3.37.27v11.5ZM4.55,86.69a2.39,2.39,0,0,0,1.37,1.24,7.36,7.36,0,0,0,2.51.34h3.31v-8c-1-.1-2.09-.16-3.22-.16a8.19,8.19,0,0,0-2.62.34,2.38,2.38,0,0,0-1.36,1.18,5.47,5.47,0,0,0-.43,2.44A6.22,6.22,0,0,0,4.55,86.69ZM4.81,70H8v3.83H4.81Zm4.66,0h3.16v3.83H9.47Z"/><path class="cls-1" d="M32.32,88.27V92H19V88.27h4.57V76.68h4.11V88.27ZM21.71,94.46h3.15v3.83H21.71Zm4.66,0h3.16v3.83H26.37Z"/><path class="cls-1" d="M41,76.68V92H32.31V88.27h4.57V76.68ZM37.1,69.84h3.77v4H37.1Z"/><path class="cls-1" d="M52.7,88.27V92H45.59V70.55H49.7V88.27Z"/><path class="cls-1" d="M75.33,88.27V92H73.64a1.54,1.54,0,0,1-1-.37,2,2,0,0,1-.67-1V92H52.7V88.27h4.78a21.12,21.12,0,0,1-.42-3.89,21.54,21.54,0,0,1,.33-3.62,28.45,28.45,0,0,1,.77-3.34,10.39,10.39,0,0,1,2.45-.71,20,20,0,0,1,3.62-.31,10.41,10.41,0,0,1,4.86.92,4.76,4.76,0,0,1,2.3,2.61,13.43,13.43,0,0,1,.6,4.41V87a2,2,0,0,0,.67,1,1.63,1.63,0,0,0,1,.35ZM61.18,86.51c.09.72.19,1.31.29,1.76h6.41v-4A4.91,4.91,0,0,0,67,81.09c-.57-.67-1.64-1-3.24-1a11.54,11.54,0,0,0-2.33.25,22.93,22.93,0,0,0-.43,4A17.43,17.43,0,0,0,61.18,86.51Z"/><path class="cls-1" d="M84,76.68V92H75.33V88.27H79.9V76.68Zm-5.92-6.53h3.16v3.68H78.09Zm2.45-4.23h2.94v3.43H80.54Zm2.21,4.23h3.16v3.68H82.75Z"/><path class="cls-3" d="M94.12,99.49V95.81l1,.06A1.83,1.83,0,0,0,96.82,95a4.61,4.61,0,0,0,.55-2.47V76.68h4.11V91.83a10.87,10.87,0,0,1-1.27,5.73,4.22,4.22,0,0,1-3.85,2C96.09,99.61,95.35,99.57,94.12,99.49Z"/><path class="cls-3" d="M122.48,92h-3.86q-.68,7.6-6.38,7.6a38.21,38.21,0,0,1-5.33-.58V95.32a40.8,40.8,0,0,0,5,.55,2.91,2.91,0,0,0,1.54-.34,1.94,1.94,0,0,0,.81-1.16,8.4,8.4,0,0,0,.26-2.36h-3.56q-6.35,0-6.34-7.17a14.7,14.7,0,0,1,.81-5.55,4.59,4.59,0,0,1,2.3-2.56,9.73,9.73,0,0,1,3.91-.66,31.58,31.58,0,0,1,3.77.23,32.39,32.39,0,0,1,3.34.53V88.27h3.77Zm-13.12-4.8a3,3,0,0,0,2.7,1.06h2.54V80a17.4,17.4,0,0,0-2.23-.15,4.93,4.93,0,0,0-2.06.35,2.44,2.44,0,0,0-1.19,1.38,8.19,8.19,0,0,0-.43,3A4.77,4.77,0,0,0,109.36,87.21Z"/><path class="cls-3" d="M131.16,76.68V92h-8.68V88.27h4.57V76.68Zm-3.9-6.84H131v4h-3.78Z"/></g></g></svg>