<svg xmlns="http://www.w3.org/2000/svg" viewBox="0 0 136.76 80.97"><defs><style>.cls-1{fill:#a2a9ad;}.cls-2{fill:#10cfc9;}.cls-3{fill:#fff;}</style></defs><g id="Layer_2" data-name="Layer 2"><g id="Layer_1-2" data-name="Layer 1"><path class="cls-1" d="M2.61,69.49V80.21H0V62.74L10.47,74.23V63.53H13.1V81Z"/><path class="cls-1" d="M21.15,79.56a8.35,8.35,0,0,1-2.65-1.8,8.22,8.22,0,0,1-2.45-5.89,8.62,8.62,0,0,1,.65-3.26A8.82,8.82,0,0,1,18.5,66a8.14,8.14,0,0,1,2.65-1.78,8.3,8.3,0,0,1,3.24-.65,8.47,8.47,0,0,1,3.26.65A8.7,8.7,0,0,1,30.3,66a8.4,8.4,0,0,1,1.78,9.15,8.24,8.24,0,0,1-1.78,2.65,9,9,0,0,1-2.65,1.8,8.66,8.66,0,0,1-3.26.65A8.48,8.48,0,0,1,21.15,79.56Zm-.81-11.74a5.72,5.72,0,1,0,4.05-1.68A5.7,5.7,0,0,0,20.34,67.82Z"/><path class="cls-1" d="M40.24,79.56a8.35,8.35,0,0,1-2.65-1.8,8.14,8.14,0,0,1-1.8-2.65,8.33,8.33,0,0,1-.65-3.24A8.22,8.22,0,0,1,37.59,66a8.14,8.14,0,0,1,2.65-1.78,8.26,8.26,0,0,1,3.24-.65,8.42,8.42,0,0,1,3.25.65A8.74,8.74,0,0,1,49.39,66a8.55,8.55,0,0,1,1.77,2.65,8.43,8.43,0,0,1,.65,3.26,8.33,8.33,0,0,1-.65,3.24,8.21,8.21,0,0,1-1.77,2.65,9,9,0,0,1-2.66,1.8,8.61,8.61,0,0,1-3.25.65A8.44,8.44,0,0,1,40.24,79.56Zm-.81-11.74a5.71,5.71,0,1,0,4-1.68A5.71,5.71,0,0,0,39.43,67.82Z"/><path class="cls-1" d="M66.43,80.21h-3l-4.2-5.64H57.37v5.64H54.76V63.53h5a5.29,5.29,0,0,1,4.15,1.66,5.66,5.66,0,0,1,1.35,3.87,5.6,5.6,0,0,1-1.35,3.84,4.57,4.57,0,0,1-1.93,1.28Zm-6.72-8a3.09,3.09,0,0,0,2.4-.9,3.88,3.88,0,0,0,0-4.56,3,3,0,0,0-2.4-.88H57.37v6.34Z"/><path class="cls-2" d="M78.52,70.32h6.09v2.36H78.52v5.17h7.4v2.36h-10V63.53h10v2.34h-7.4Z"/><path class="cls-2" d="M89,80.21V63.53h2.6V80.21Z"/><path class="cls-2" d="M108,73.91v4.52l-.59.41,0,0-.09,0s0,0-.07,0a.13.13,0,0,1-.09,0,.22.22,0,0,1-.09.07s0,0-.07,0l-.07,0-.11,0-.07,0a.16.16,0,0,1-.11.05l0,0h-.05l-.11.07-.16.07,0,0a8.41,8.41,0,0,1-3,.72h-.43a8,8,0,0,1-2.63-.43h0c-.09,0-.16-.07-.25-.09l-.33-.13a4.38,4.38,0,0,1-.81-.41,7.36,7.36,0,0,1-1.85-1.39,8.27,8.27,0,0,1-1.79-2.65,8.06,8.06,0,0,1-.61-2.41c0-.27,0-.56,0-.83v-.43a8.71,8.71,0,0,1,.66-2.83A8.38,8.38,0,0,1,96.86,66a8.36,8.36,0,0,1,5.89-2.43h.43a.68.68,0,0,1,.2,0,8.12,8.12,0,0,1,2.81.7,0,0,0,0,0,0,0l.14.07h0v3.08a5.48,5.48,0,0,0-1.12-.72,6.23,6.23,0,0,0-1-.38.06.06,0,0,1-.06,0h-.07s0,0-.09,0l0,0a2.93,2.93,0,0,1-.29,0h0l-.09,0h0a.15.15,0,0,1-.09,0h-.2l-.07,0h-.36a5.59,5.59,0,0,0-2.94.81L99.7,67a5.15,5.15,0,0,0-1,.81,4,4,0,0,0-.3.29s0,0,0,0-.2.27-.29.4l0,0-.14.2a.18.18,0,0,0,0,.09,5.19,5.19,0,0,0-.7,1.71s0,0,0,0c0,.23-.09.45-.12.68v.24a1.77,1.77,0,0,0,0,.32,1.52,1.52,0,0,0,0,.29,5.82,5.82,0,0,0,.21,1.26,5.75,5.75,0,0,0,5.5,4.18h.16a.1.1,0,0,0,.07,0h.33s0,0,0,0h.13l.5-.09s0,0,0,0a.13.13,0,0,0,.09,0h.07a.1.1,0,0,1,.07,0,.15.15,0,0,1,.09,0s0,0,0,0a4.59,4.59,0,0,0,.93-.36h0V73.91h-3.15V71.55H108Z"/><path class="cls-2" d="M122.56,80.21H120V73H113.3v7.19h-2.61V63.53h2.61v7.12H120V63.53h2.61Z"/><path class="cls-2" d="M136.76,65.87h-4.58V80.21h-2.63V65.87H125V63.53h11.8Z"/><circle class="cls-2" cx="67.83" cy="27.27" r="27.27"/><path class="cls-3" d="M56.87,39.31H53.48V14.43h3.39s.39,5.21,8,11.72c2.17,1.86,4.41,3.64,6.48,5.61a17,17,0,0,1,4,5.17c2.05,4.49,1.23,10.56-3.71,12.68a9.65,9.65,0,0,1-4.28.76A8.3,8.3,0,0,1,61,46.87c-1.7-2.4-1.61-5.33-1.15-8.15s3.54-7.73,3.76-7.55l2.5,2s-1.55,2.31-1.65,2.46c-2.23,3.69-3.17,10.2,2.3,11.36,3.24.69,5.67-1.28,6.36-4.39.78-3.52-2.61-7.36-5.21-9.7-2.12-1.92-8.4-6.65-10.23-9.25-1-1.42-.91-1.3-.91.45S56.87,39.31,56.87,39.31Z"/><path class="cls-3" d="M78.9,15.24h3.39V40.11H78.9s-.39-5.21-8-11.72c-2.17-1.85-4.41-3.63-6.48-5.6a17.29,17.29,0,0,1-4-5.17c-2.05-4.49-1.23-10.57,3.71-12.69a9.8,9.8,0,0,1,4.28-.76,8.33,8.33,0,0,1,6.33,3.5c1.7,2.4,1.61,5.33,1.15,8.16s-3.54,7.73-3.76,7.55l-2.5-2s1.55-2.31,1.65-2.47c2.23-3.69,3.17-10.2-2.3-11.36-3.24-.68-5.67,1.28-6.36,4.39-.78,3.52,2.61,7.36,5.21,9.71,2.13,1.91,8.4,6.64,10.23,9.25,1,1.42.91,1.3.91-.46S78.9,15.24,78.9,15.24Z"/><path class="cls-3" d="M60.16,49.79A8.63,8.63,0,0,1,59,49.41,23.19,23.19,0,0,1,44.52,27.69c0-9.11,5.66-17.92,13.76-21.42l1-.42s.06,0,0,0a5.61,5.61,0,0,0-.78,1.26A22.7,22.7,0,0,0,45.45,27.69,22.42,22.42,0,0,0,59.23,48.52a9.1,9.1,0,0,0,1,1.21S60.21,49.81,60.16,49.79Z"/><path class="cls-3" d="M75.46,49.79a8.63,8.63,0,0,0,1.21-.38A23.19,23.19,0,0,0,91.1,27.69c0-9.11-5.66-17.92-13.76-21.42l-1-.42a0,0,0,0,0,0,0A6.21,6.21,0,0,1,77,7.15,22.7,22.7,0,0,1,90.17,27.69,22.42,22.42,0,0,1,76.39,48.52a9.1,9.1,0,0,1-1,1.21S75.41,49.81,75.46,49.79Z"/></g></g></svg>