<svg xmlns="http://www.w3.org/2000/svg" viewBox="0 0 241.57 129.17"><defs><style>.cls-1{fill:#f40f02;}.cls-2{fill:#fff;}.cls-3{fill:#1f2525;}</style></defs><g id="Layer_2" data-name="Layer 2"><g id="Layer_1-2" data-name="Layer 1"><circle class="cls-1" cx="120.79" cy="43.51" r="43.51"/><path class="cls-2" d="M103.3,62.71H97.89V23h5.41s.62,8.31,12.78,18.7c3.45,3,7,5.8,10.33,8.94a27.64,27.64,0,0,1,6.37,8.25c3.27,7.16,2,16.85-5.92,20.24A15.63,15.63,0,0,1,120,80.36a13.28,13.28,0,0,1-10.1-5.58c-2.72-3.84-2.58-8.51-1.84-13s5.65-12.34,6-12.05l4,3.24s-2.48,3.69-2.63,3.93c-3.56,5.89-5.06,16.27,3.67,18.12,5.16,1.1,9-2,10.14-7,1.25-5.61-4.16-11.74-8.31-15.48-3.39-3.06-13.4-10.6-16.31-14.76-1.59-2.26-1.46-2.07-1.46.73S103.3,62.71,103.3,62.71Z"/><path class="cls-2" d="M138.45,24.3h5.4V64h-5.4s-.63-8.31-12.78-18.7c-3.46-3-7-5.8-10.34-8.94A27.52,27.52,0,0,1,109,28.1c-3.27-7.16-2-16.85,5.92-20.24a15.63,15.63,0,0,1,6.82-1.21,13.29,13.29,0,0,1,10.1,5.59c2.72,3.83,2.58,8.5,1.84,13s-5.64,12.33-6,12l-4-3.24s2.48-3.68,2.63-3.93c3.56-5.88,5.06-16.27-3.67-18.12-5.16-1.1-9,2-10.14,7-1.24,5.61,4.16,11.73,8.31,15.48,3.39,3,13.41,10.59,16.32,14.75,1.58,2.27,1.45,2.08,1.45-.73S138.45,24.3,138.45,24.3Z"/><path class="cls-2" d="M108.55,79.44a17.58,17.58,0,0,1-1.93-.62,37,37,0,0,1-23-34.64c0-14.54,9-28.6,22-34.18.5-.21,1.09-.45,1.66-.67.06,0,.1,0,.07.06a9.46,9.46,0,0,0-1.25,2,36.19,36.19,0,0,0-21,32.77,35.76,35.76,0,0,0,22,33.22,15.06,15.06,0,0,0,1.58,1.94C108.7,79.39,108.64,79.46,108.55,79.44Z"/><path class="cls-2" d="M133,79.44a18.1,18.1,0,0,0,1.92-.62,37,37,0,0,0,23-34.64c0-14.54-9-28.6-22-34.18l-1.67-.67c-.06,0-.1,0-.06.06a9.91,9.91,0,0,1,1.25,2,36.21,36.21,0,0,1,20.95,32.77,35.75,35.75,0,0,1-22,33.22,15.06,15.06,0,0,1-1.58,1.94C132.81,79.39,132.87,79.46,133,79.44Z"/><path class="cls-3" d="M4.16,110.85V128H0V100.09l16.71,18.33V101.35h4.2v27.82Z"/><path class="cls-3" d="M33.75,126.92a13.47,13.47,0,0,1-4.24-2.87,13.24,13.24,0,0,1-3.9-9.4,13.45,13.45,0,0,1,1-5.2,14,14,0,0,1,2.86-4.23,13,13,0,0,1,4.24-2.83,13.28,13.28,0,0,1,5.16-1,13.63,13.63,0,0,1,5.2,1,13.08,13.08,0,0,1,7.06,7.06,13.63,13.63,0,0,1,1,5.2,13.28,13.28,0,0,1-1,5.16,13,13,0,0,1-2.83,4.24,14.39,14.39,0,0,1-4.23,2.87,13.62,13.62,0,0,1-5.2,1A13.28,13.28,0,0,1,33.75,126.92Zm-1.3-18.72a9.09,9.09,0,1,0,6.46-2.69A9.07,9.07,0,0,0,32.45,108.2Z"/><path class="cls-3" d="M64.19,126.92A13.54,13.54,0,0,1,60,124.05a13.14,13.14,0,0,1-2.87-4.24,13.28,13.28,0,0,1-1-5.16,13.63,13.63,0,0,1,1-5.2A14,14,0,0,1,60,105.22a13.09,13.09,0,0,1,4.23-2.83,13.33,13.33,0,0,1,5.17-1,13.54,13.54,0,0,1,5.19,1,13.06,13.06,0,0,1,7.07,7.06,13.63,13.63,0,0,1,1,5.2,13.38,13.38,0,0,1-3.87,9.4,14.44,14.44,0,0,1-4.24,2.87,13.54,13.54,0,0,1-5.19,1A13.33,13.33,0,0,1,64.19,126.92ZM62.9,108.2a9.09,9.09,0,1,0,6.46-2.69A9.08,9.08,0,0,0,62.9,108.2Z"/><path class="cls-3" d="M106,128h-4.7l-6.7-9h-3v9H87.36v-26.6h7.89a8.44,8.44,0,0,1,6.63,2.65,9.87,9.87,0,0,1,0,12.3,7.48,7.48,0,0,1-3.08,2ZM95.25,115.23a4.89,4.89,0,0,0,3.83-1.44,6.16,6.16,0,0,0,0-7.28,4.87,4.87,0,0,0-3.83-1.4H91.52v10.12Z"/><path class="cls-1" d="M126.28,127.47a17.84,17.84,0,0,1-5.34-.8,11.66,11.66,0,0,1-4-2.06l1.53-3.43a12.63,12.63,0,0,0,3.53,1.87,13.08,13.08,0,0,0,4.32.74,9.08,9.08,0,0,0,3-.41,3.67,3.67,0,0,0,1.7-1.1,2.5,2.5,0,0,0,.54-1.58,2.17,2.17,0,0,0-.78-1.75,5.84,5.84,0,0,0-2-1.06c-.83-.26-1.75-.5-2.76-.73s-2-.49-3-.8a12.29,12.29,0,0,1-2.76-1.19,5.8,5.8,0,0,1-2-2,5.74,5.74,0,0,1-.78-3.13,6.43,6.43,0,0,1,1-3.55,7.16,7.16,0,0,1,3.17-2.59,13.1,13.1,0,0,1,5.39-1,17.14,17.14,0,0,1,4.25.54,12.35,12.35,0,0,1,3.67,1.56l-1.4,3.44a12.54,12.54,0,0,0-3.3-1.41,12.32,12.32,0,0,0-3.26-.46,8.23,8.23,0,0,0-3,.44,3.58,3.58,0,0,0-1.67,1.16,2.67,2.67,0,0,0-.53,1.63,2.21,2.21,0,0,0,.77,1.75,5.47,5.47,0,0,0,2,1c.83.25,1.75.49,2.77.73s2,.5,3,.8a12.14,12.14,0,0,1,2.75,1.15,5.66,5.66,0,0,1,2,1.94,5.75,5.75,0,0,1,.76,3.09,6.38,6.38,0,0,1-1,3.52,7.19,7.19,0,0,1-3.18,2.59A13.26,13.26,0,0,1,126.28,127.47Z"/><path class="cls-1" d="M144.71,127.13h-4.42v-23.8h4.42Zm12.65-10.2h-13v-3.78h13Zm-.34-13.6h4.42v23.8H157Z"/><path class="cls-1" d="M164.46,127.13l10.71-23.8h4.35l10.75,23.8h-4.63l-9.21-21.46h1.77L169,127.13Zm4.93-5.51,1.19-3.47h12.85l1.2,3.47Z"/><path class="cls-1" d="M193.29,127.13v-23.8h3.64l14.93,18.32h-1.8V103.33h4.38v23.8H210.8L195.88,108.8h1.8v18.33Z"/><path class="cls-1" d="M232,127.47a14,14,0,0,1-5.11-.91,12.21,12.21,0,0,1-4.07-2.55,11.38,11.38,0,0,1-2.68-3.89,13,13,0,0,1,0-9.79,11.25,11.25,0,0,1,2.7-3.89,12.34,12.34,0,0,1,4.1-2.55A14.18,14.18,0,0,1,232,103a14.36,14.36,0,0,1,5.46,1,10.7,10.7,0,0,1,4.09,2.89l-2.78,2.72a8.78,8.78,0,0,0-6.57-2.72,9.75,9.75,0,0,0-3.46.61,8,8,0,0,0-2.76,1.74,7.78,7.78,0,0,0-1.78,2.65,8.76,8.76,0,0,0-.63,3.37,8.66,8.66,0,0,0,.63,3.33,7.89,7.89,0,0,0,4.5,4.42,9.61,9.61,0,0,0,3.47.61,10.66,10.66,0,0,0,3.42-.56,9.24,9.24,0,0,0,3.14-1.89l2.52,3.3a13,13,0,0,1-4.34,2.26A16.69,16.69,0,0,1,232,127.47Zm5.14-3.61V115h4.18v9.49Z"/></g></g></svg>