<svg xmlns="http://www.w3.org/2000/svg" viewBox="0 0 54.54 54.54"><defs><style>.cls-1{fill:#10cfc9;}.cls-2{fill:#fff;}</style></defs><g id="Layer_2" data-name="Layer 2"><g id="Layer_1-2" data-name="Layer 1"><circle class="cls-1" cx="27.27" cy="27.27" r="27.27"/><path class="cls-2" d="M16.31,39.31H12.92V14.43h3.39s.39,5.21,8,11.72c2.17,1.86,4.41,3.64,6.48,5.61a17,17,0,0,1,4,5.17c2.05,4.49,1.23,10.56-3.71,12.68a9.65,9.65,0,0,1-4.28.76,8.3,8.3,0,0,1-6.33-3.5c-1.7-2.4-1.61-5.33-1.15-8.15s3.54-7.73,3.76-7.55l2.5,2S24,35.51,23.93,35.66c-2.23,3.69-3.17,10.2,2.3,11.36,3.24.69,5.67-1.28,6.36-4.39.78-3.52-2.61-7.36-5.21-9.7C25.26,31,19,26.28,17.15,23.68c-1-1.42-.91-1.3-.91.45S16.31,39.31,16.31,39.31Z"/><path class="cls-2" d="M38.34,15.24h3.39V40.11H38.34s-.39-5.21-8-11.72c-2.17-1.85-4.41-3.63-6.48-5.6a17.29,17.29,0,0,1-4-5.17c-2.05-4.49-1.23-10.57,3.71-12.69a9.8,9.8,0,0,1,4.28-.76,8.33,8.33,0,0,1,6.33,3.5c1.7,2.4,1.61,5.33,1.15,8.16s-3.54,7.73-3.76,7.55l-2.5-2s1.55-2.31,1.65-2.47c2.23-3.69,3.17-10.2-2.3-11.36-3.24-.68-5.67,1.28-6.36,4.39-.78,3.52,2.61,7.36,5.21,9.71,2.13,1.91,8.4,6.64,10.23,9.25,1,1.42.91,1.3.91-.46S38.34,15.24,38.34,15.24Z"/><path class="cls-2" d="M19.6,49.79a8.63,8.63,0,0,1-1.21-.38A23.19,23.19,0,0,1,4,27.69C4,18.58,9.62,9.77,17.72,6.27l1.05-.42s.06,0,0,0A5.61,5.61,0,0,0,18,7.15,22.7,22.7,0,0,0,4.89,27.69,22.42,22.42,0,0,0,18.67,48.52a9.1,9.1,0,0,0,1,1.21S19.65,49.81,19.6,49.79Z"/><path class="cls-2" d="M34.9,49.79a8.63,8.63,0,0,0,1.21-.38A23.19,23.19,0,0,0,50.54,27.69c0-9.11-5.66-17.92-13.76-21.42l-1.05-.42a0,0,0,0,0,0,0,6.21,6.21,0,0,1,.79,1.26A22.7,22.7,0,0,1,49.61,27.69,22.42,22.42,0,0,1,35.83,48.52a9.1,9.1,0,0,1-1,1.21S34.85,49.81,34.9,49.79Z"/></g></g></svg>